# xmcd CD database file
#
# Track frame offsets:
#	150
#	3330
#	19997
#	44787
#	66212
#	74747
#	94052
#	111477
#	136720
#	158545
#	164650
#	183447
#	205807
#
# Disc length: 3068 seconds
#
# Revision: 0
# Processed by: cddbd v1.5PL3 Copyright (c) Steve Scherf et al.
# Submitted via: CDex 1.51
#
DISCID=bb0bfa0d
DTITLE=MELLOW YELLOW - CRAZY CLIMBER
DYEAR=1900
DGENRE=ヒップ ホップ (一般)
TTITLE0=INTRO
TTITLE1=ビートサーフィン
TTITLE2=V.S.O.P pt.2 -New Version-
TTITLE3=ウィークエンダー
TTITLE4=JINGLE JAM #4
TTITLE5=愛のダ・カーポ
TTITLE6=NO QUESTION
TTITLE7=GOOD COMBINATION
TTITLE8=オレンジ
TTITLE9=JINGLE JAM #5
TTITLE10=クレイジークライマー
TTITLE11=亜流　feat.PES(RIP SLYME)
TTITLE12=V.S.O.P pt.1
EXTD=
EXTT0=
EXTT1=
EXTT2=
EXTT3=
EXTT4=
EXTT5=
EXTT6=
EXTT7=
EXTT8=
EXTT9=
EXTT10=
EXTT11=
EXTT12=
PLAYORDER=
